<svg viewBox="0 0 143 143" fill="none" xmlns="http://www.w3.org/2000/svg">
<path fill-rule="evenodd" clip-rule="evenodd" d="M71.5 143C110.988 143 143 110.988 143 71.5C143 32.0116 110.988 0 71.5 0C32.0116 0 0 32.0116 0 71.5C0 110.988 32.0116 143 71.5 143Z" fill="white"/>
<path d="M71.7805 7.10357C71.7805 7.30103 71.6548 7.57029 71.5112 7.69594C71.3496 7.8216 71.2778 8.07292 71.3317 8.25242C71.4035 8.48578 71.3496 8.59349 71.1701 8.59349C71.0086 8.59349 70.8829 8.66529 70.8829 8.773C70.8829 8.86275 70.9727 8.95251 71.0624 8.95251C71.1701 8.95251 71.2419 9.07816 71.2419 9.22177C71.2419 9.40127 71.1163 9.49103 70.9368 9.45513C70.7214 9.41922 70.6316 9.50898 70.6675 9.70644C70.7034 9.88595 70.6316 10.0296 70.5239 10.0296C70.4341 10.0296 70.3444 10.1911 70.3444 10.3706C70.3444 10.5681 70.2546 10.7476 70.1469 10.7835C69.9854 10.8373 69.9854 10.963 70.1649 11.2682C70.2726 11.5015 70.3085 11.6451 70.2008 11.5913C70.111 11.5195 69.6982 12.2016 69.2673 13.0812C68.8545 13.9787 68.4416 14.7506 68.3518 14.8045C68.2621 14.8583 68.1903 15.0558 68.1903 15.2532C68.1903 15.4507 68.0287 15.7738 67.8313 15.9892C67.6338 16.2046 67.4723 16.5278 67.4723 16.6893C67.4723 16.8688 67.2748 17.2458 67.0235 17.533C66.7722 17.8382 66.5747 18.1254 66.5747 18.1792C66.5747 18.3767 65.8208 19.9743 65.6951 20.082C65.6233 20.1359 65.1566 20.9796 64.6719 21.9669C63.3436 24.6415 62.5896 26.0597 62.3383 26.3648C62.2306 26.5084 62.0331 26.9392 61.9075 27.2983C61.7998 27.6752 61.6382 27.9804 61.5485 27.9804C61.4767 27.9804 61.3151 28.2317 61.2074 28.5369C61.0997 28.8241 60.5971 29.8114 60.0945 30.7269C57.3121 35.6095 54.799 40.6716 53.8117 43.3643C53.5963 43.9387 53.3629 44.4413 53.2911 44.4952C53.2193 44.549 53.1116 44.8183 53.0577 45.1234C52.9141 45.8415 52.0704 49.288 51.855 49.9702C51.496 51.137 51.4422 55.6067 51.7473 57.7429C51.9089 58.8558 52.1422 59.9688 52.2499 60.2021L52.4474 60.633L53.6681 60.0226C54.7272 59.4841 58.9995 57.9583 60.0227 57.7429C60.2201 57.689 59.9149 57.5634 59.3046 57.4377C58.7122 57.33 58.0481 57.1864 57.8327 57.1325C57.5993 57.0966 57.4198 56.971 57.4198 56.8812C57.4198 56.7735 58.3353 56.7017 59.7175 56.6838C61.5485 56.6838 61.8895 56.6299 61.4587 56.4863C61.1715 56.3786 60.8304 56.2171 60.7227 56.1452C60.615 56.0555 60.2201 55.876 59.8252 55.7324C59.4482 55.6067 58.6763 55.2836 58.1378 55.0323C57.5993 54.781 56.5043 54.3143 55.7145 53.9911C53.9194 53.2552 53.2552 52.8961 53.1475 52.591C53.0757 52.3935 53.1834 52.3756 53.5783 52.4833C53.8655 52.5551 54.781 52.7705 55.6247 52.95C56.4684 53.1295 57.6711 53.3988 58.3173 53.5603C59.3585 53.7937 60.615 54.063 61.6382 54.2425C61.8357 54.2784 62.2306 54.404 62.4999 54.5117C63.1461 54.781 63.3436 54.781 63.3436 54.4938C63.3436 54.3681 62.4819 53.668 61.4408 52.932C60.3996 52.1961 59.3585 51.4242 59.161 51.2447C58.4071 50.5446 59.2508 50.76 61.4228 51.8191C62.6255 52.3935 63.6308 52.8602 63.6667 52.8423C63.6846 52.8243 63.3256 52.3935 62.8589 51.9089C62.3742 51.4062 61.3151 50.2574 60.4714 49.3598C59.6277 48.4443 58.6045 47.3493 58.1917 46.9185C57.4736 46.2005 57.2044 45.5722 57.5993 45.5722C57.7788 45.5722 59.1969 46.5775 59.8611 47.1878C60.0765 47.3852 60.3278 47.5468 60.3996 47.5468C60.4894 47.5468 60.8663 47.834 61.2433 48.1751C61.6203 48.5161 61.9613 48.8034 61.9972 48.8034C62.0331 48.8034 62.823 49.3598 63.7385 50.0599C66.2516 51.9268 66.3054 51.7832 64.3668 48.6418C63.7385 47.6186 63.3974 46.8826 63.4872 46.7929C63.5949 46.6852 64.2591 47.2955 65.2104 48.3366C66.0541 49.288 66.7542 49.9881 66.7542 49.8804C66.7542 49.7907 66.467 48.8752 66.108 47.8699C65.7669 46.8467 65.2463 45.285 64.9591 44.4054C64.6899 43.5079 64.3309 42.4847 64.1693 42.1256C63.8641 41.4076 63.7923 40.7255 64.0257 40.7255C64.1154 40.7255 64.7258 41.7128 65.4079 42.9155C66.09 44.1361 67.1491 46.021 67.7774 47.116C68.4057 48.211 68.9083 49.1983 68.9083 49.3239C68.9083 49.4316 68.9981 49.5214 69.1058 49.5214C69.2673 49.5214 69.2853 49.1624 69.1955 48.2648C69.1417 47.5648 69.034 46.4338 68.9801 45.7517C68.7647 43.454 69.3212 44.3695 70.2726 47.852C70.4341 48.4802 70.6316 48.9829 70.7034 48.9829C70.7573 48.9829 70.9188 47.9597 71.0445 46.6852C71.1522 45.4286 71.3317 43.5617 71.4394 42.5206C71.6727 39.9715 71.7984 39.2356 71.96 39.4151C72.0318 39.4869 72.2651 41.3358 72.4985 43.5079C73.037 48.9111 73.037 48.9829 73.1986 48.9829C73.2883 48.9829 73.5576 48.193 73.8268 47.2237C74.868 43.5079 75.3347 42.9873 74.9219 46.021C74.5987 48.4443 74.5449 49.3419 74.7423 49.3419C74.9398 49.3419 75.6758 48.1033 77.2555 45.1234C78.0632 43.6156 78.7992 42.3231 79.6609 40.905C79.7506 40.7614 79.8763 40.6896 79.9481 40.7614C80.0917 40.887 79.6788 42.1974 77.8658 47.5468C77.5606 48.4802 77.2196 49.3957 77.1478 49.5573C76.7349 50.383 77.1119 50.4548 77.6504 49.647C77.8658 49.3419 78.2428 48.8752 78.4761 48.6238C78.7095 48.3725 79.266 47.7443 79.7327 47.2416C80.1814 46.7211 80.6123 46.362 80.6661 46.4518C80.7559 46.6134 80.5584 46.9724 79.0146 49.5214C78.6197 50.1676 78.2607 50.8318 78.1889 50.9934C78.0094 51.478 78.4582 51.3883 79.1942 50.8139C79.5352 50.5446 80.0199 50.1856 80.2533 50.024C80.4687 49.8625 81.9227 48.7854 83.4485 47.6366C86.0155 45.7158 86.5719 45.3927 86.5001 45.8415C86.4822 45.9492 85.5667 46.9903 84.4537 48.1751C83.3587 49.3598 82.0483 50.7779 81.5637 51.3165C81.061 51.855 80.5584 52.3756 80.4507 52.4474C80.3251 52.5192 80.2173 52.6628 80.2173 52.7525C80.2173 52.8423 81.1508 52.4653 82.2817 51.9268C83.4126 51.3883 84.3819 50.9575 84.4358 50.9575C84.723 50.9575 84.4358 51.496 83.9511 51.8729C82.892 52.6448 82.174 53.1116 82.0124 53.1116C81.9406 53.1116 81.8329 53.1834 81.797 53.2552C81.7791 53.327 81.4739 53.5783 81.1687 53.8116C80.6123 54.1886 80.3789 54.7271 80.7559 54.7271C80.8456 54.7271 81.2764 54.6194 81.6893 54.4758C82.1201 54.3322 83.2331 54.063 84.1665 53.8475C85.1 53.6501 86.4463 53.3629 87.1284 53.2013C88.6901 52.8423 88.9415 52.7884 89.7851 52.6628C90.2519 52.591 90.4134 52.4833 90.3237 52.3397C90.2519 52.214 90.3237 52.214 90.5032 52.3756C90.6647 52.5012 90.8083 52.6448 90.8083 52.6628C90.8083 52.7884 89.5518 53.4347 88.385 53.9014C87.7028 54.1886 86.7694 54.5835 86.3206 54.781C85.8719 54.9784 84.7051 55.499 83.7178 55.9119L81.9227 56.6838L84.2204 56.7017C85.5846 56.7017 86.5001 56.7735 86.5001 56.8812C86.5001 56.971 86.3206 57.0966 86.1052 57.1325C85.5128 57.2582 83.5742 57.6352 83.3228 57.6711C82.9279 57.7429 82.8382 57.9583 83.2151 57.9583C83.9691 57.9583 88.9415 59.7175 89.5518 60.2021C89.6954 60.3278 90.1801 60.4714 90.6288 60.5073C91.4007 60.5971 91.4546 60.5612 91.4905 60.1662C91.5084 59.9329 91.5982 59.5918 91.6879 59.4303C91.9213 58.9994 92.2803 56.3607 92.3342 54.8169C92.388 53.4526 92.1367 50.2753 91.9033 48.9829C91.6161 47.5109 90.6468 44.4234 90.0006 42.8796C89.6415 42.0359 89.2646 41.1204 89.1569 40.8152C89.0492 40.528 88.6901 39.8279 88.367 39.2715C88.0439 38.697 87.7208 38.0508 87.649 37.8174C87.5951 37.5841 87.4695 37.3687 87.4156 37.3148C87.3438 37.261 86.4104 35.5736 85.3333 33.5451C84.2742 31.5167 83.1972 29.5062 82.9638 29.0754C82.7125 28.6266 81.9586 27.1726 81.2585 25.8442C80.5584 24.4979 79.9301 23.3132 79.8583 23.2234C79.6429 22.9362 77.5427 18.9332 76.3579 16.5278C75.7476 15.325 75.1911 14.3916 75.1014 14.4634C75.0296 14.5352 75.0116 14.5173 75.0655 14.4096C75.1373 14.2839 74.8321 13.4402 74.4013 12.5247C73.9705 11.5913 73.5576 10.6578 73.5037 10.4245C73.4319 10.2091 73.2883 10.0296 73.1986 10.0296C73.1088 10.0296 73.037 9.85005 73.037 9.65259C73.037 9.27562 72.2113 7.22923 71.9241 6.88816C71.8523 6.7984 71.7805 6.88816 71.7805 7.10357Z" fill="#F64B13"/>
<path d="M67.6518 58.8738C64.4924 58.9994 61.1895 59.3764 58.1378 59.9508C55.876 60.3816 52.7167 61.1715 52.5372 61.333C52.1781 61.692 54.2963 66.3413 55.7144 68.3877C59.3405 73.5216 65.2104 76.4476 71.8882 76.4476C73.7191 76.4476 75.5142 76.1784 77.8837 75.568C79.5173 75.1552 81.6355 74.1499 83.3587 72.9831C84.7589 72.0317 87.3259 69.4648 88.2414 68.1005C89.4261 66.3234 91.4187 61.9254 91.1494 61.6561C90.9699 61.4587 87.1643 60.4714 84.9743 60.0406C79.4096 58.9635 74.2038 58.6224 67.6518 58.8738Z" fill="#091152"/>
<path d="M53.7399 71.188C53.4526 71.2239 51.8371 71.4214 50.1497 71.6189C42.3949 72.5344 36.5071 74.0063 33.8862 75.6578C31.9296 76.8964 31.786 78.2786 33.5093 79.4454C35.5018 80.8097 39.0022 81.8508 44.7644 82.8202C53.2731 84.2383 60.2919 84.7409 71.8882 84.723C86.2129 84.705 96.032 83.7895 104.451 81.6534C108.616 80.6122 110.662 79.589 111.38 78.2068C112.834 75.4244 105.007 72.7677 91.1135 71.3316C88.2773 71.0444 86.7874 71.0983 86.913 71.4753C87.0028 71.7445 87.6849 71.8881 90.6288 72.2292C100.645 73.4319 106.246 75.2988 106.246 77.4888C106.246 77.8658 105.133 78.9608 104.325 79.3736C103.32 79.8942 100.017 80.9174 98.1682 81.2944C90.0903 82.892 80.8815 83.5562 69.1237 83.3946C56.235 83.2151 47.0442 82.1201 41.4076 80.1096C38.8227 79.1941 37.6739 78.2966 37.6739 77.2195C37.6918 75.963 39.2715 75.0654 43.4002 73.9345C46.0748 73.2165 51.2267 72.3548 54.6374 72.0497C55.3375 71.9958 56.1094 71.8881 56.3966 71.8522C56.9351 71.7445 57.0428 71.3496 56.594 71.1701C56.3068 71.0624 54.6733 71.0624 53.7399 71.188Z" fill="#202463"/>
<path d="M56.0735 73.2344C52.0704 73.9345 49.5573 74.5089 48.0854 75.0295C46.7031 75.5142 45.5722 76.4835 45.5722 77.1836C45.5722 78.0632 47.493 79.248 49.8086 79.7865C52.1602 80.325 53.6322 80.5404 60.4714 81.2944C65.2284 81.8329 80.5046 81.8329 84.346 81.2944C84.9923 81.2046 86.1591 81.079 86.9489 81.0251C90.3237 80.7738 93.8959 79.9121 96.3731 78.7453C97.4143 78.2427 98.4016 77.5247 98.0425 77.5247C97.9707 77.5247 98.0066 77.4529 98.1502 77.3631C98.5452 77.1118 98.1502 76.3579 97.4143 75.9091C96.6603 75.4424 94.7934 74.7423 93.3574 74.3833C92.4598 74.1679 92.1547 74.1499 91.9572 74.3115C91.7418 74.473 91.7238 74.473 91.7956 74.2576C91.8854 74.0602 91.5802 73.9525 90.4134 73.773C89.5877 73.6473 88.2234 73.4319 87.3797 73.2703C85.8719 73.0011 85.818 73.0011 85.3154 73.3601C83.3947 74.6885 81.5098 75.6758 79.4096 76.4476C77.8478 77.0221 77.4529 77.1298 75.5501 77.4708C72.1933 78.0632 68.4057 77.794 65.4079 76.7349C63.3077 75.9989 62.9307 75.8373 61.9434 75.227C61.4228 74.9218 60.9382 74.6526 60.8484 74.6526C60.7586 74.6526 60.2381 74.2935 59.6995 73.8448C58.802 73.1267 58.6045 73.037 57.8327 73.0549C57.3659 73.0729 56.5761 73.1447 56.0735 73.2344Z" fill="#F45D28"/>
<path d="M29.1831 83.6639C28.9677 84.4178 29.0395 87.1284 29.2908 87.4336C29.3985 87.5951 30.1883 87.8823 31.032 88.0618L32.5579 88.4208L32.5399 89.4261C32.522 90.0005 32.504 92.2623 32.4861 94.4703L32.4681 98.4733L32.0014 98.9759C31.5347 99.4786 31.5347 99.4786 29.7755 99.3529L28.0163 99.2452L27.7291 100.484C27.3701 102.028 27.3521 103.302 27.6752 103.428C28.6266 103.787 30.7269 103.93 32.1809 103.751C35.1069 103.356 36.7045 102.423 37.5123 100.645L37.9431 99.694V92.5136V85.3333L37.0456 85.1179C35.3761 84.7409 30.0447 83.4485 29.6678 83.3408C29.3806 83.269 29.2549 83.3408 29.1831 83.6639Z" fill="#090C4F"/>
<path d="M108.759 84.4717C107.341 84.6691 106.013 84.9563 104.972 85.2615C103.589 85.6564 103.859 85.2256 102.028 90.2698C101.471 91.7956 100.861 93.4112 100.681 93.86C100.215 94.955 98.7965 98.599 98.0605 100.645C97.7194 101.561 97.3245 102.548 97.1809 102.835C96.9116 103.356 96.9116 103.374 97.3963 103.5C97.6835 103.571 98.7965 103.625 99.9094 103.643C101.471 103.643 101.974 103.589 102.171 103.374C102.315 103.23 102.656 102.44 102.925 101.651L103.41 100.179L105.151 100.268C106.3 100.322 107.287 100.268 108.131 100.089C109.046 99.8914 109.423 99.8735 109.513 100.035C109.585 100.143 109.854 100.915 110.123 101.758C110.375 102.602 110.68 103.338 110.806 103.41C111.093 103.607 115.616 103.571 115.94 103.374C116.173 103.23 116.011 102.638 114.88 99.2991C113.785 96.032 111.883 90.7724 109.944 85.5308C109.513 84.3999 109.477 84.364 108.759 84.4717ZM107.126 92.011C107.431 92.9804 107.826 94.3087 108.023 94.9909L108.364 96.1936L107.987 96.409C107.485 96.6782 105.151 96.8039 104.828 96.5885C104.595 96.4269 104.918 95.1704 106.354 90.4852C106.479 90.0723 106.587 90.2698 107.126 92.011Z" fill="#090C4F"/>
<path d="M45.1414 87.3258C43.472 87.8644 42.1257 89.0312 41.4256 90.5749C39.8818 93.9677 40.4921 98.8323 42.7898 101.274C43.7053 102.261 45.1953 103.105 46.7031 103.482C48.4982 103.948 52.0345 103.93 53.6501 103.482C57.5095 102.369 59.4841 100.143 59.6995 96.6423C59.9688 92.6034 57.9224 89.4979 54.045 88.0439C51.9807 87.272 51.478 87.1822 48.7136 87.1104C46.5954 87.0566 45.8235 87.0925 45.1414 87.3258ZM51.2447 90.8981C52.7346 91.3648 53.4347 92.2264 53.8296 94.1651C54.3322 96.6064 53.7758 98.8862 52.4474 99.7837C51.873 100.179 51.5858 100.232 50.3471 100.232C48.6418 100.232 47.9417 99.9094 47.1339 98.7785C46.1287 97.3424 46.0569 93.6266 47.0083 92.011C47.7443 90.7724 49.4137 90.3416 51.2447 90.8981Z" fill="#090C4F"/>
<path d="M88.1157 87.7028C86.3924 87.7926 84.1665 88.1516 84.0229 88.367C83.9511 88.4747 83.8972 91.9392 83.8972 96.0499V103.553H90.1262C94.7037 103.553 96.391 103.5 96.4808 103.338C96.6423 103.087 96.6603 100.717 96.4987 100.232C96.391 99.8914 96.2474 99.8735 92.8727 99.9273L89.3723 99.9812V93.7702C89.3723 90.3595 89.3184 87.5951 89.2466 87.6131C89.1568 87.631 88.6542 87.6669 88.1157 87.7028Z" fill="#090C4F"/>
<path d="M68.8186 88.5824C64.6001 89.462 62.5537 91.3827 62.0511 94.9549C61.7998 96.6962 61.9972 97.9886 62.7332 99.5324C64.1154 102.458 67.0414 103.841 71.6907 103.787C76.34 103.733 79.0685 102.387 80.4687 99.4427C80.9892 98.3118 81.0251 98.1502 81.0251 96.1038C81.0251 93.5368 80.6661 92.4239 79.4096 91.0417C77.794 89.2286 75.4604 88.4567 71.6189 88.4926C70.2726 88.5106 69.016 88.5465 68.8186 88.5824ZM73.8268 92.3162C74.9039 93.1419 75.2809 94.1472 75.2809 96.2833C75.2809 98.4015 74.9218 99.299 73.755 100.071C73.1447 100.484 72.8395 100.556 71.6548 100.556C69.4289 100.574 68.4595 99.8555 67.9031 97.863C67.3107 95.7089 67.939 93.1778 69.2494 92.3521C70.2187 91.7417 70.3264 91.7058 71.7984 91.7597C72.9832 91.7956 73.2345 91.8674 73.8268 92.3162Z" fill="#090C4F"/>
<path d="M48.6239 105.797C47.7981 106.174 46.5057 107.431 46.1826 108.203C46.0389 108.544 45.9312 109.369 45.9312 110.088C45.9492 111.254 46.003 111.434 46.6134 112.331C47.4032 113.516 48.3008 114.001 49.7368 114.108C51.9807 114.27 53.8296 112.87 54.2425 110.698C54.5656 108.885 53.9014 107.287 52.3397 106.156C51.4601 105.528 49.6291 105.348 48.6239 105.797ZM51.5678 107.503C52.5192 108.113 53.1834 109.298 53.0218 110.105C52.968 110.357 52.8962 110.734 52.8423 110.967C52.6628 111.847 51.2088 112.888 50.1497 112.888C49.5214 112.888 48.5521 112.421 48.0135 111.865C47.5468 111.362 47.3853 111.021 47.2955 110.249C46.9903 107.646 49.3778 106.12 51.5678 107.503Z" fill="#FC4D22"/>
<path d="M78.4941 105.959C76.7708 106.767 75.6937 108.849 76.0886 110.644C76.6092 112.978 78.0812 114.198 80.3789 114.18C81.9586 114.162 83.0177 113.66 83.7716 112.565C84.3101 111.757 84.7769 110.285 84.5973 109.98C84.4537 109.764 80.7918 109.8 80.6661 110.016C80.5943 110.123 80.5225 110.447 80.4866 110.734L80.4148 111.272H81.6534C82.3535 111.272 82.91 111.326 82.91 111.398C82.892 111.721 82.174 112.385 81.5457 112.637C80.3071 113.157 78.6197 112.601 77.8658 111.416C77.5786 110.931 77.5247 110.59 77.5786 109.675C77.6324 108.58 77.6683 108.49 78.3864 107.844C79.5711 106.803 80.8277 106.731 82.2458 107.628L82.9459 108.077L83.3767 107.664C83.9511 107.126 83.9152 106.892 83.2331 106.372C81.9406 105.402 80.0199 105.241 78.4941 105.959Z" fill="#FC4D22"/>
<path d="M94.3805 105.797C93.3573 106.354 92.8727 107.88 93.4471 108.741C93.5907 108.975 94.1472 109.549 94.6498 109.998C96.3372 111.524 96.5526 111.793 96.391 112.224C96.1218 112.96 94.8113 112.942 94.3985 112.188C94.1472 111.703 93.8959 111.721 93.2496 112.224C92.765 112.619 92.747 112.672 92.9804 113.031C94.2908 114.898 97.2347 114.683 97.8271 112.672C98.1861 111.434 97.8989 110.806 96.2654 109.244C94.7754 107.808 94.4882 107.287 95.0447 107.072C95.5294 106.892 95.8345 106.946 96.1397 107.323C96.5526 107.79 96.768 107.772 97.2706 107.233C97.7912 106.677 97.6655 106.354 96.7321 105.851C95.9961 105.474 95.0268 105.438 94.3805 105.797Z" fill="#FC4D22"/>
<path d="M55.3554 105.887C55.2836 105.995 55.2657 107.862 55.3016 110.016L55.3554 113.965H56.0376H56.7018V109.836V105.707H56.0914C55.7504 105.707 55.4093 105.797 55.3554 105.887Z" fill="#FC4D22"/>
<path d="M58.1558 105.887C58.084 105.941 58.0301 106.3 58.0301 106.695C58.048 107.09 58.084 108.885 58.1019 110.68L58.1378 113.965H59.9329H61.728V113.337V112.708H60.7586C60.2201 112.708 59.6816 112.672 59.538 112.619C59.3585 112.547 59.3226 111.829 59.3585 109.118L59.4123 105.725L58.8558 105.761C58.5327 105.779 58.2276 105.833 58.1558 105.887Z" fill="#FC4D22"/>
<path fill-rule="evenodd" clip-rule="evenodd" d="M86.1411 110.734C86.4284 109.872 87.3618 107.413 87.7388 106.551C88.1157 105.743 88.1516 105.708 88.8876 105.708H89.6416L90.2519 107.377C90.5171 108.114 91.0484 109.503 91.5182 110.732C91.6207 111.001 91.7203 111.261 91.8136 111.506C92.3521 112.87 92.783 114.019 92.783 114.055C92.783 114.108 92.4239 114.144 91.9752 114.144C91.2392 114.144 91.1315 114.091 90.9879 113.642C90.7595 113.03 90.6497 112.704 90.4227 112.535C90.1502 112.332 89.7087 112.356 88.6902 112.385H87.3903L86.6797 113.247C86.4104 113.947 86.2848 114.055 85.7821 114.108C85.1179 114.18 84.5256 114.001 84.8128 113.821C84.9923 113.714 85.818 111.793 86.1411 110.734ZM87.7066 110.006L88.9492 107.107L90.0262 110.006H87.7066Z" fill="#FC4D22"/>
<path fill-rule="evenodd" clip-rule="evenodd" d="M67.4722 106.192C66.9158 106.408 66.2157 107.233 66.1977 107.664C66.1977 108.095 66.1798 108.095 66.0362 107.772C65.8926 107.449 65.8746 107.449 65.8746 107.736C65.8567 107.915 66.0541 108.418 66.3054 108.867C66.7722 109.693 66.8799 110.195 66.5927 110.195C66.2157 110.195 65.4977 111.577 65.4977 112.331C65.4977 113.965 67.0414 114.593 69.0699 113.785C69.8597 113.48 70.0033 113.462 70.2367 113.696C70.3982 113.857 70.829 113.965 71.3676 113.947C71.8343 113.947 72.1215 113.893 72.0138 113.839C71.8881 113.803 71.7804 113.66 71.7804 113.552C71.7804 113.426 71.6189 113.229 71.4214 113.103C70.9547 112.816 70.9547 112.421 71.4214 112.17L71.7984 111.972L71.4035 111.434L71.0265 110.895L70.5957 111.29L70.1649 111.703L69.4468 110.985C68.639 110.177 68.5852 110.016 69.1058 109.549C70.4162 108.364 70.0033 106.3 68.4236 106.138C68.0467 106.102 67.6158 106.12 67.4722 106.192ZM68.6023 107.703C68.6023 108.062 68.1111 108.703 67.7522 108.703C67.3932 108.703 67 108.062 67 107.703C67 107.344 67.3932 107 67.7522 107C68.1111 107 68.6023 107.344 68.6023 107.703ZM67.65 112.3C68.009 112.3 68.3 112.009 68.3 111.65C68.3 111.291 68.009 111 67.65 111C67.291 111 67 111.291 67 111.65C67 112.009 67.291 112.3 67.65 112.3Z" fill="#FC4D22"/>
</svg>
