<svg width="59" height="72" viewBox="0 0 59 72" fill="none" xmlns="http://www.w3.org/2000/svg">
<g clip-path="url(#clip0)">
<path d="M29.1965 0.719573C29.1965 0.848315 29.1146 1.02387 29.021 1.1058C28.9156 1.18773 28.8688 1.35158 28.9039 1.46862C28.9508 1.62076 28.9156 1.69098 28.7986 1.69098C28.6933 1.69098 28.6113 1.7378 28.6113 1.80802C28.6113 1.86654 28.6699 1.92506 28.7284 1.92506C28.7986 1.92506 28.8454 2.00698 28.8454 2.10062C28.8454 2.21765 28.7635 2.27617 28.6465 2.25276C28.506 2.22936 28.4475 2.28787 28.4709 2.41662C28.4943 2.53365 28.4475 2.62729 28.3773 2.62729C28.3188 2.62729 28.2602 2.73262 28.2602 2.84965C28.2602 2.9784 28.2017 3.09543 28.1315 3.11884C28.0262 3.15395 28.0262 3.23588 28.1432 3.43484C28.2134 3.58699 28.2368 3.68062 28.1666 3.64551C28.1081 3.59869 27.8389 4.04344 27.558 4.61692C27.2888 5.20211 27.0196 5.70537 26.9611 5.74048C26.9026 5.77559 26.8558 5.90433 26.8558 6.03307C26.8558 6.16181 26.7505 6.37248 26.6217 6.51292C26.493 6.65337 26.3876 6.86404 26.3876 6.96937C26.3876 7.08641 26.2589 7.33219 26.095 7.51945C25.9312 7.71841 25.8025 7.90567 25.8025 7.94078C25.8025 8.06952 25.3109 9.11115 25.229 9.18138C25.1822 9.21649 24.8779 9.76656 24.5619 10.4103C23.6958 12.1541 23.2042 13.0787 23.0404 13.2777C22.9701 13.3713 22.8414 13.6522 22.7595 13.8863C22.6893 14.1321 22.5839 14.331 22.5254 14.331C22.4786 14.331 22.3733 14.4949 22.303 14.6938C22.2328 14.8811 21.9051 15.5248 21.5774 16.1217C19.7633 19.3051 18.1248 22.6056 17.4811 24.3611C17.3407 24.7356 17.1885 25.0633 17.1417 25.0985C17.0949 25.1336 17.0246 25.3091 16.9895 25.5081C16.8959 25.9762 16.3458 28.2234 16.2054 28.6681C15.9713 29.4288 15.9362 32.3431 16.1352 33.7358C16.2405 34.4614 16.3926 35.1871 16.4629 35.3392L16.5916 35.6201L17.3875 35.2222C18.078 34.8711 20.8635 33.8763 21.5306 33.7358C21.6593 33.7007 21.4604 33.6188 21.0624 33.5369C20.6762 33.4666 20.2432 33.373 20.1027 33.3379C19.9506 33.3145 19.8335 33.2326 19.8335 33.174C19.8335 33.1038 20.4304 33.057 21.3316 33.0453C22.5254 33.0453 22.7478 33.0102 22.4669 32.9166C22.2796 32.8463 22.0573 32.741 21.987 32.6942C21.9168 32.6357 21.6593 32.5186 21.4018 32.425C21.1561 32.3431 20.6528 32.1324 20.3017 31.9686C19.9506 31.8047 19.2367 31.5004 18.7217 31.2897C17.5513 30.8099 17.1183 30.5758 17.0481 30.3768C17.0012 30.2481 17.0715 30.2364 17.3289 30.3066C17.5162 30.3534 18.1131 30.4939 18.6632 30.6109C19.2132 30.728 19.9974 30.9035 20.4187 31.0088C21.0975 31.161 21.9168 31.3365 22.5839 31.4536C22.7127 31.477 22.9701 31.5589 23.1457 31.6291C23.567 31.8047 23.6958 31.8047 23.6958 31.6174C23.6958 31.5355 23.134 31.0791 22.4552 30.5992C21.7764 30.1194 21.0975 29.6161 20.9688 29.4991C20.4773 29.0426 21.0273 29.1831 22.4435 29.8736C23.2276 30.2481 23.883 30.5524 23.9064 30.5407C23.9182 30.529 23.6841 30.2481 23.3798 29.9321C23.0638 29.6044 22.3733 28.8554 21.8232 28.2702C21.2731 27.6733 20.606 26.9594 20.3368 26.6785C19.8687 26.2103 19.6931 25.8007 19.9506 25.8007C20.0676 25.8007 20.9922 26.4561 21.4253 26.854C21.5657 26.9828 21.7296 27.0881 21.7764 27.0881C21.8349 27.0881 22.0807 27.2754 22.3264 27.4977C22.5722 27.7201 22.7946 27.9074 22.818 27.9074C22.8414 27.9074 23.3564 28.2702 23.9533 28.7266C25.5918 29.9438 25.6269 29.8502 24.3629 27.802C23.9533 27.1349 23.7309 26.6551 23.7894 26.5965C23.8596 26.5263 24.2927 26.9242 24.913 27.6031C25.463 28.2234 25.9195 28.6798 25.9195 28.6096C25.9195 28.5511 25.7322 27.9542 25.4982 27.2988C25.2758 26.6316 24.9364 25.6134 24.7491 25.0399C24.5736 24.4548 24.3395 23.7876 24.2342 23.5536C24.0352 23.0854 23.9884 22.6407 24.1405 22.6407C24.199 22.6407 24.597 23.2844 25.0417 24.0685C25.4865 24.8644 26.177 26.0933 26.5866 26.8072C26.9962 27.5211 27.3239 28.1648 27.3239 28.2468C27.3239 28.317 27.3825 28.3755 27.4527 28.3755C27.558 28.3755 27.5697 28.1414 27.5112 27.5562C27.4761 27.0998 27.4059 26.3625 27.3708 25.9177C27.2303 24.4196 27.5931 25.0165 28.2134 27.2871C28.3188 27.6967 28.4475 28.0244 28.4943 28.0244C28.5294 28.0244 28.6348 27.3573 28.7167 26.5263C28.7869 25.7071 28.9039 24.4899 28.9742 23.811C29.1263 22.1491 29.2082 21.6693 29.3136 21.7863C29.3604 21.8331 29.5125 23.0386 29.6647 24.4548C30.0158 27.9776 30.0158 28.0244 30.1211 28.0244C30.1797 28.0244 30.3552 27.5094 30.5308 26.8774C31.2096 24.4548 31.5139 24.1153 31.2447 26.0933C31.034 27.6733 30.9989 28.2585 31.1277 28.2585C31.2564 28.2585 31.7362 27.4509 32.7662 25.5081C33.2928 24.525 33.7727 23.6823 34.3345 22.7577C34.393 22.6641 34.4749 22.6173 34.5217 22.6641C34.6154 22.746 34.3462 23.6004 33.1641 27.0881C32.9651 27.6967 32.7428 28.2936 32.696 28.3989C32.4268 28.9373 32.6725 28.9841 33.0237 28.4574C33.1641 28.2585 33.4099 27.9542 33.562 27.7903C33.7142 27.6265 34.077 27.2168 34.3813 26.8891C34.6739 26.5497 34.9548 26.3156 34.9899 26.3742C35.0484 26.4795 34.9197 26.7136 33.9131 28.3755C33.6557 28.7968 33.4216 29.2299 33.3748 29.3352C33.2577 29.6512 33.5503 29.5927 34.0302 29.2182C34.2526 29.0426 34.5686 28.8085 34.7207 28.7032C34.8611 28.5979 35.8091 27.8957 36.804 27.1466C38.4776 25.8943 38.8404 25.6836 38.7936 25.9762C38.7819 26.0465 38.185 26.7253 37.4594 27.4977C36.7454 28.2702 35.8911 29.1948 35.5751 29.5459C35.2474 29.897 34.9197 30.2364 34.8494 30.2832C34.7675 30.33 34.6973 30.4237 34.6973 30.4822C34.6973 30.5407 35.3059 30.2949 36.0432 29.9438C36.7806 29.5927 37.4126 29.3118 37.4477 29.3118C37.6349 29.3118 37.4477 29.6629 37.1317 29.9087C36.4412 30.412 35.973 30.7163 35.8677 30.7163C35.8209 30.7163 35.7506 30.7631 35.7272 30.8099C35.7155 30.8567 35.5166 31.0205 35.3176 31.1727C34.9548 31.4185 34.8026 31.7696 35.0484 31.7696C35.1069 31.7696 35.3878 31.6994 35.657 31.6057C35.9379 31.5121 36.6635 31.3365 37.2721 31.1961C37.8807 31.0674 38.7585 30.8801 39.2032 30.7748C40.2215 30.5407 40.3853 30.5056 40.9354 30.4237C41.2397 30.3768 41.345 30.3066 41.2865 30.213C41.2397 30.1311 41.2865 30.1311 41.4035 30.2364C41.5089 30.3183 41.6025 30.412 41.6025 30.4237C41.6025 30.5056 40.7832 30.9269 40.0225 31.2312C39.5778 31.4185 38.9692 31.676 38.6766 31.8047C38.384 31.9334 37.6232 32.2728 36.9795 32.542L35.8091 33.0453L37.3072 33.057C38.1967 33.057 38.7936 33.1038 38.7936 33.174C38.7936 33.2326 38.6766 33.3145 38.5361 33.3379C38.1499 33.4198 36.8859 33.6656 36.722 33.689C36.4646 33.7358 36.406 33.8763 36.6518 33.8763C37.1434 33.8763 40.3853 35.0232 40.7832 35.3392C40.8769 35.4212 41.1929 35.5148 41.4855 35.5382C41.9887 35.5967 42.0238 35.5733 42.0472 35.3158C42.0589 35.1637 42.1175 34.9413 42.176 34.836C42.3281 34.5551 42.5622 32.8346 42.5973 31.8281C42.6324 30.9386 42.4686 28.8671 42.3164 28.0244C42.1292 27.0647 41.4972 25.0516 41.0758 24.0451C40.8418 23.495 40.596 22.8982 40.5258 22.6992C40.4555 22.5119 40.2215 22.0555 40.0108 21.6927C39.8001 21.3182 39.5895 20.8968 39.5426 20.7447C39.5075 20.5925 39.4256 20.4521 39.3905 20.417C39.3437 20.3819 38.7351 19.2817 38.0329 17.9592C37.3423 16.6367 36.6401 15.3258 36.488 15.0449C36.3241 14.7524 35.8326 13.8044 35.3761 12.9383C34.9197 12.0605 34.51 11.288 34.4632 11.2295C34.3228 11.0423 32.9534 8.43234 32.181 6.86404C31.7831 6.07989 31.4202 5.47129 31.3617 5.51811C31.3149 5.56492 31.3032 5.55322 31.3383 5.483C31.3851 5.40107 31.1862 4.85099 30.9053 4.2541C30.6244 3.64551 30.3552 3.03691 30.3201 2.88477C30.2733 2.74432 30.1797 2.62729 30.1211 2.62729C30.0626 2.62729 30.0158 2.51025 30.0158 2.38151C30.0158 2.13573 29.4774 0.801501 29.2902 0.579132C29.2434 0.520611 29.1965 0.579132 29.1965 0.719573Z" fill="#F64B13"/>
<path d="M26.5045 34.4727C24.4446 34.5546 22.2912 34.8004 20.3015 35.1749C18.8268 35.4558 16.767 35.9708 16.6499 36.0761C16.4159 36.3102 17.7969 39.3415 18.7215 40.6757C21.0857 44.023 24.9128 45.9307 29.2666 45.9307C30.4604 45.9307 31.6307 45.7551 33.1756 45.3572C34.2407 45.088 35.6217 44.4326 36.7453 43.6718C37.6582 43.0515 39.3318 41.3779 39.9287 40.4884C40.7011 39.3298 42.0002 36.4623 41.8247 36.2868C41.7076 36.158 39.2265 35.5143 37.7986 35.2334C34.1704 34.5312 30.7764 34.3089 26.5045 34.4727Z" fill="#091152"/>
<path d="M17.4342 42.5013C17.247 42.5247 16.1936 42.6534 15.0935 42.7821C10.0375 43.379 6.19863 44.3387 4.48988 45.4155C3.21417 46.223 3.12055 47.1242 4.2441 47.885C5.54322 48.7745 7.82545 49.4533 11.5823 50.0853C17.1299 51.0099 21.7061 51.3376 29.2667 51.3259C38.6063 51.3142 45.0082 50.7173 50.4973 49.3245C53.2125 48.6457 54.5468 47.9786 55.0149 47.0774C55.9629 45.2633 50.8601 43.5312 41.8014 42.5949C39.9522 42.4076 38.9808 42.4427 39.0627 42.6885C39.1212 42.8641 39.566 42.9577 41.4854 43.1801C48.0161 43.9642 51.6676 45.1814 51.6676 46.6093C51.6676 46.855 50.942 47.569 50.4153 47.8382C49.7599 48.1776 47.6065 48.8447 46.401 49.0905C41.1343 50.1321 35.1303 50.5651 27.4643 50.4598C19.061 50.3428 13.0687 49.6288 9.39375 48.318C7.70841 47.7211 6.95937 47.1359 6.95937 46.4337C6.97107 45.6144 8.001 45.0293 10.6929 44.2919C12.4367 43.8238 15.7957 43.262 18.0194 43.063C18.4758 43.0279 18.9791 42.9577 19.1664 42.9343C19.5175 42.8641 19.5877 42.6066 19.2951 42.4895C19.1079 42.4193 18.0428 42.4193 17.4342 42.5013Z" fill="#202463"/>
<path d="M18.9557 43.8362C16.3458 44.2926 14.7072 44.6671 13.7475 45.0066C12.8463 45.3226 12.109 45.9546 12.109 46.411C12.109 46.9845 13.3613 47.7569 14.8711 48.108C16.4043 48.4592 17.364 48.5996 21.8231 49.0912C24.9246 49.4423 34.8845 49.4423 37.3891 49.0912C37.8104 49.0326 38.5712 48.9507 39.0861 48.9156C41.2864 48.7517 43.6155 48.19 45.2306 47.4292C45.9094 47.1015 46.5531 46.6334 46.319 46.6334C46.2722 46.6334 46.2956 46.5866 46.3893 46.528C46.6467 46.3642 46.3893 45.8726 45.9094 45.58C45.4178 45.2757 44.2007 44.8193 43.2644 44.5852C42.6792 44.4448 42.4802 44.4331 42.3515 44.5384C42.211 44.6437 42.1993 44.6437 42.2461 44.5033C42.3047 44.3746 42.1057 44.3043 41.3449 44.1873C40.8066 44.1054 39.9171 43.9649 39.367 43.8596C38.3839 43.684 38.3488 43.684 38.0211 43.9181C36.7688 44.7842 35.5399 45.4279 34.1706 45.9311C33.1523 46.3057 32.8948 46.3759 31.6542 46.5983C29.4657 46.9845 26.9962 46.8089 25.0416 46.1184C23.6723 45.6386 23.4265 45.5332 22.7828 45.1353C22.4434 44.9363 22.1274 44.7608 22.0689 44.7608C22.0104 44.7608 21.671 44.5267 21.3199 44.2341C20.7347 43.766 20.6059 43.7074 20.1027 43.7191C19.7984 43.7308 19.2834 43.7777 18.9557 43.8362Z" fill="#F45D28"/>
<path d="M1.42345 50.6354C1.283 51.1269 1.32982 52.8942 1.49367 53.0931C1.56389 53.1985 2.07886 53.3857 2.62893 53.5028L3.62375 53.7368L3.61205 54.3923C3.60034 54.7668 3.58864 56.2414 3.57694 57.681L3.56523 60.2909L3.26093 60.6186C2.95664 60.9464 2.95664 60.9464 1.80967 60.8644L0.662705 60.7942L0.475445 61.6018C0.241371 62.6083 0.229667 63.4392 0.440334 63.5212C1.06063 63.7552 2.42997 63.8489 3.37797 63.7318C5.28568 63.4744 6.32731 62.8658 6.85398 61.7071L7.13487 61.0868V56.4053V51.7238L6.54969 51.5834C5.46124 51.3376 1.98523 50.4949 1.73945 50.4247C1.55219 50.3779 1.47026 50.4247 1.42345 50.6354Z" fill="#090C4F"/>
<path d="M53.3061 51.1625C52.3815 51.2913 51.5154 51.4785 50.8366 51.6775C49.9354 51.935 50.111 51.6541 48.9172 54.9428C48.5544 55.9376 48.1565 56.991 48.0394 57.2836C47.7351 57.9975 46.8105 60.3734 46.3307 61.7076C46.1083 62.3045 45.8508 62.9482 45.7572 63.1354C45.5817 63.4748 45.5817 63.4866 45.8977 63.5685C46.0849 63.6153 46.8105 63.6504 47.5362 63.6621C48.5544 63.6621 48.8821 63.627 49.0108 63.4866C49.1045 63.3929 49.3268 62.878 49.5024 62.363L49.8184 61.4033L50.9537 61.4618C51.7027 61.4969 52.3464 61.4618 52.8965 61.3448C53.4934 61.216 53.7392 61.2043 53.7977 61.3097C53.8445 61.3799 54.02 61.8831 54.1956 62.4332C54.3595 62.9833 54.5584 63.4631 54.6403 63.51C54.8276 63.6387 57.7769 63.6153 57.9876 63.4866C58.1398 63.3929 58.0344 63.0067 57.2971 60.8298C56.5832 58.6997 55.3426 55.2705 54.0786 51.853C53.7977 51.1157 53.7743 51.0923 53.3061 51.1625ZM52.2411 56.0781C52.44 56.7101 52.6975 57.5762 52.8263 58.0209L53.0486 58.8051L52.8029 58.9455C52.4752 59.1211 50.9537 59.203 50.743 59.0625C50.5909 58.9572 50.8015 58.1379 51.7378 55.0833C51.8197 54.8141 51.89 54.9428 52.2411 56.0781Z" fill="#090C4F"/>
<path d="M11.8281 53.0231C10.7396 53.3742 9.86182 54.1349 9.40538 55.1414C8.39886 57.3534 8.79678 60.5252 10.2949 62.1169C10.8918 62.7606 11.8632 63.3106 12.8463 63.5564C14.0167 63.8607 16.3223 63.849 17.3756 63.5564C19.8919 62.8308 21.1793 61.3795 21.3198 59.0973C21.4953 56.464 20.1611 54.4392 17.6331 53.4912C16.2872 52.9879 15.9595 52.9294 14.1571 52.8826C12.7761 52.8475 12.2728 52.8709 11.8281 53.0231ZM15.8073 55.3521C16.7787 55.6564 17.2352 56.2182 17.4927 57.4822C17.8204 59.0739 17.4576 60.5603 16.5915 61.1454C16.217 61.4029 16.0297 61.438 15.2221 61.438C14.1103 61.438 13.6538 61.2274 13.1272 60.49C12.4718 59.5537 12.4249 57.1311 13.0452 56.0777C13.5251 55.2702 14.6135 54.9893 15.8073 55.3521Z" fill="#090C4F"/>
<path d="M39.8469 53.2691C38.7234 53.3276 37.2721 53.5617 37.1785 53.7022C37.1317 53.7724 37.0966 56.0312 37.0966 58.7114V63.6035H41.1578C44.1422 63.6035 45.2424 63.5684 45.3009 63.4631C45.4062 63.2992 45.4179 61.7543 45.3126 61.4383C45.2424 61.216 45.1487 61.2042 42.9484 61.2394L40.6662 61.2745V57.225C40.6662 55.0013 40.6311 53.1989 40.5843 53.2106C40.5258 53.2223 40.198 53.2457 39.8469 53.2691Z" fill="#090C4F"/>
<path d="M27.2652 53.8428C24.5148 54.4163 23.1806 55.6686 22.8529 57.9976C22.689 59.1329 22.8178 59.9755 23.2976 60.9821C24.1988 62.8898 26.1065 63.791 29.1378 63.7558C32.169 63.7207 33.948 62.843 34.8609 60.9235C35.2003 60.1862 35.2237 60.0809 35.2237 58.7466C35.2237 57.073 34.9896 56.3474 34.1704 55.4462C33.117 54.2641 31.5956 53.7609 29.091 53.7843C28.2132 53.796 27.3939 53.8194 27.2652 53.8428ZM30.5305 56.2772C31.2327 56.8155 31.4785 57.4709 31.4785 58.8637C31.4785 60.2447 31.2444 60.8299 30.4837 61.3332C30.0858 61.6024 29.8868 61.6492 29.1144 61.6492C27.6631 61.6609 27.0311 61.1927 26.6683 59.8936C26.2821 58.4892 26.6917 56.8389 27.5461 56.3006C28.1781 55.9026 28.2483 55.8792 29.208 55.9143C29.9804 55.9378 30.1443 55.9846 30.5305 56.2772Z" fill="#090C4F"/>
<path d="M14.0987 65.0661C13.5603 65.3119 12.7177 66.1311 12.507 66.6344C12.4134 66.8568 12.3431 67.3951 12.3431 67.8633C12.3548 68.624 12.39 68.7411 12.7879 69.3262C13.3028 70.0987 13.888 70.4147 14.8243 70.4849C16.2873 70.5903 17.4928 69.6774 17.762 68.2612C17.9726 67.0791 17.5396 66.0375 16.5214 65.3002C15.9479 64.8905 14.7541 64.7735 14.0987 65.0661ZM16.0181 66.1779C16.6384 66.5759 17.0714 67.3483 16.9661 67.875C16.931 68.0388 16.8842 68.2846 16.8491 68.4368C16.732 69.0102 15.784 69.6891 15.0935 69.6891C14.6839 69.6891 14.0519 69.3848 13.7008 69.022C13.3965 68.6942 13.2911 68.4719 13.2326 67.9686C13.0337 66.2716 14.5903 65.2768 16.0181 66.1779Z" fill="#FC4D22"/>
<path d="M33.5738 65.1718C32.4502 65.6985 31.748 67.0561 32.0055 68.2265C32.3449 69.7479 33.3046 70.5438 34.8027 70.5321C35.8326 70.5204 36.5231 70.1927 37.0147 69.4788C37.3658 68.9521 37.6701 67.9924 37.553 67.7934C37.4594 67.653 35.0718 67.6764 34.9899 67.8168C34.9431 67.8871 34.8963 68.0977 34.8729 68.285L34.8261 68.6361H35.6336C36.0901 68.6361 36.4529 68.6712 36.4529 68.718C36.4412 68.9287 35.973 69.3617 35.5634 69.5256C34.7558 69.865 33.6557 69.5022 33.1641 68.7297C32.9769 68.4137 32.9418 68.1914 32.9769 67.5945C33.012 66.8805 33.0354 66.822 33.5035 66.4007C34.276 65.7219 35.0952 65.675 36.0198 66.2602L36.4763 66.5528L36.7572 66.2836C37.1317 65.9325 37.1083 65.7804 36.6635 65.441C35.8209 64.809 34.5686 64.7036 33.5738 65.1718Z" fill="#FC4D22"/>
<path d="M43.9314 65.0664C43.2643 65.4292 42.9483 66.424 43.3228 66.9858C43.4165 67.1379 43.7793 67.5125 44.107 67.8051C45.2071 68.7999 45.3476 68.9754 45.2422 69.2563C45.0667 69.7362 44.2123 69.7245 43.9431 69.2329C43.7793 68.9169 43.6154 68.9286 43.1941 69.2563C42.8781 69.5138 42.8664 69.5489 43.0185 69.783C43.8729 71.0002 45.7923 70.8597 46.1785 69.5489C46.4126 68.7414 46.2254 68.3317 45.1603 67.3135C44.1889 66.3772 44.0016 66.0378 44.3645 65.8973C44.6805 65.7803 44.8794 65.8154 45.0784 66.0612C45.3476 66.3655 45.488 66.3538 45.8157 66.0027C46.1551 65.6399 46.0732 65.4292 45.4646 65.1015C44.9848 64.8557 44.3528 64.8323 43.9314 65.0664Z" fill="#FC4D22"/>
<path d="M18.4874 65.1249C18.4406 65.1951 18.4288 66.4123 18.4523 67.8168L18.4874 70.3916H18.9321H19.3651V67.6997V65.0079H18.9672C18.7448 65.0079 18.5225 65.0664 18.4874 65.1249Z" fill="#FC4D22"/>
<path d="M20.3132 65.1249C20.2664 65.16 20.2313 65.3941 20.2313 65.6516C20.243 65.9091 20.2664 67.0794 20.2781 68.2498L20.3015 70.3916H21.4719H22.6423V69.982V69.5723H22.0103C21.6592 69.5723 21.3081 69.5489 21.2144 69.5138C21.0974 69.467 21.074 68.9989 21.0974 67.2316L21.1325 65.0196L20.7697 65.043C20.559 65.0547 20.3601 65.0898 20.3132 65.1249Z" fill="#FC4D22"/>
<path fill-rule="evenodd" clip-rule="evenodd" d="M38.5596 68.2851C38.7468 67.7233 39.3554 66.1199 39.6012 65.5581C39.847 65.0314 39.8704 65.008 40.3502 65.008H40.8418L41.2397 66.0965C41.4126 66.5768 41.759 67.483 42.0653 68.2842C42.1322 68.4591 42.1971 68.629 42.2579 68.7883C42.609 69.6778 42.8899 70.4269 42.8899 70.4503C42.8899 70.4854 42.6559 70.5088 42.3633 70.5088C41.8834 70.5088 41.8132 70.4737 41.7196 70.1811C41.5707 69.7822 41.4991 69.5694 41.3511 69.4593C41.1734 69.327 40.8856 69.3427 40.2215 69.3618H39.374L38.9107 69.9236C38.7351 70.38 38.6532 70.4503 38.3255 70.4854C37.8924 70.5322 37.5062 70.4152 37.6935 70.2981C37.8105 70.2279 38.3489 68.9756 38.5596 68.2851ZM39.5803 67.8107L40.3905 65.9203L41.0927 67.8107H39.5803Z" fill="#FC4D22"/>
<path fill-rule="evenodd" clip-rule="evenodd" d="M26.3874 65.3234C26.0246 65.4638 25.5681 66.0022 25.5564 66.2831C25.5564 66.564 25.5447 66.564 25.4511 66.3533C25.3575 66.1426 25.3458 66.1426 25.3458 66.3299C25.3341 66.4469 25.4628 66.7746 25.6266 67.0672C25.9309 67.6056 26.0012 67.9333 25.8139 67.9333C25.5681 67.9333 25.1 68.8345 25.1 69.3261C25.1 70.3911 26.1065 70.8007 27.429 70.2741C27.944 70.0751 28.0376 70.0634 28.1898 70.2155C28.2951 70.3209 28.576 70.3911 28.9271 70.3794C29.2314 70.3794 29.4187 70.3443 29.3484 70.3092C29.2665 70.2858 29.1963 70.1921 29.1963 70.1219C29.1963 70.04 29.091 69.9112 28.9622 69.8293C28.6579 69.6421 28.6579 69.3846 28.9622 69.2207L29.208 69.092L28.9505 68.7409L28.7047 68.3898L28.4238 68.6472L28.1429 68.9164L27.6748 68.4483C27.1481 67.9216 27.113 67.8163 27.4524 67.512C28.3068 66.7395 28.0376 65.3936 27.0077 65.2883C26.7619 65.2649 26.481 65.2766 26.3874 65.3234ZM27.1243 66.3084C27.1243 66.5425 26.8041 66.9604 26.57 66.9604C26.336 66.9604 26.0796 66.5425 26.0796 66.3084C26.0796 66.0744 26.336 65.8501 26.57 65.8501C26.8041 65.8501 27.1243 66.0744 27.1243 66.3084ZM26.5034 69.3056C26.7375 69.3056 26.9272 69.1159 26.9272 68.8818C26.9272 68.6478 26.7375 68.458 26.5034 68.458C26.2694 68.458 26.0796 68.6478 26.0796 68.8818C26.0796 69.1159 26.2694 69.3056 26.5034 69.3056Z" fill="#FC4D22"/>
</g>
<defs>
<clipPath id="clip0">
<rect width="58.679" height="71.0667" fill="white"/>
</clipPath>
</defs>
</svg>
